<?xml version="1.0" encoding="utf-8"?>
<!-- Generator: Adobe Illustrator 24.1.2, SVG Export Plug-In . SVG Version: 6.00 Build 0)  -->
<svg version="1.2" baseProfile="tiny" id="Ebene_1" xmlns="http://www.w3.org/2000/svg" xmlns:xlink="http://www.w3.org/1999/xlink"
	 x="0px" y="0px" viewBox="0 0 135 70" overflow="visible" xml:space="preserve">
<path fill="#7229B2" d="M89.8,2l-1.1,8.3H67v12.1h20.5l-1.1,8.3H67v12.8h22.8l-1.1,8.3H56.4V2H89.8z"/>
<path fill="#7229B2" d="M94.7,51.9V2h19.9c2.7,0,5,0.3,6.9,0.9c1.9,0.6,3.5,1.5,4.8,2.7c1.3,1.1,2.2,2.5,2.8,4
	c0.6,1.5,0.9,3.2,0.9,5v1.2c0,2.2-0.5,4.1-1.4,5.8c-1,1.7-2.4,3.1-4.4,4.1c2.2,0.9,4,2.3,5.2,4.4c1.2,2,1.8,4.3,1.8,6.9v1.1
	c0,4.3-1.4,7.7-4.2,10.1c-2.8,2.4-7.2,3.6-13.1,3.6H94.7z M104.8,22.1h8.8c1.9,0,3.4-0.5,4.5-1.4c1.1-0.9,1.6-2.3,1.6-4.1v-1
	c0-3.8-2.2-5.7-6.6-5.7h-8.3V22.1z M104.8,43.9h9c2.2,0,4-0.5,5.2-1.5c1.2-1,1.8-2.5,1.8-4.6v-1.2c0-4.4-2.4-6.6-7.2-6.6h-8.7V43.9z
	"/>
<g>
	<path d="M2,56.6h5.8c1.4,0,2.6,0.1,3.5,0.4c0.9,0.3,1.7,0.6,2.2,1.1c0.6,0.5,0.9,1,1.2,1.7c0.2,0.7,0.3,1.4,0.3,2.2v1.1
		c0,0.8-0.1,1.5-0.3,2.2c-0.2,0.7-0.6,1.2-1.2,1.7c-0.6,0.5-1.3,0.8-2.2,1.1c-0.9,0.3-2.1,0.4-3.5,0.4H2V56.6z M5.5,66.4h1.9
		c0.7,0,1.2-0.1,1.7-0.2c0.5-0.1,0.9-0.3,1.3-0.6c0.3-0.3,0.6-0.6,0.7-1.1c0.2-0.4,0.2-1,0.2-1.6v-0.9c0-0.7-0.1-1.2-0.2-1.7
		c-0.2-0.4-0.4-0.8-0.7-1.1c-0.3-0.3-0.7-0.4-1.3-0.6c-0.5-0.1-1.1-0.2-1.7-0.2H5.5V66.4z"/>
	<path d="M29.1,56.6l-0.4,2h-7.2v2.9h6.8l-0.3,2h-6.4v3.1h7.5l-0.4,2H18.1V56.6H29.1z"/>
	<path d="M34.8,56.6l3.7,9l3.7-9h3.6l-5.6,11.9h-3.6l-5.6-11.9H34.8z"/>
	<path d="M59.1,56.6l-0.4,2h-7.2v2.9h6.8l-0.3,2h-6.4v3.1h7.5l-0.4,2H48.1V56.6H59.1z"/>
	<path d="M65.3,56.6v9.8h7.1L72,68.5H61.7V56.6H65.3z"/>
	<path d="M87.4,63.3c0,0.8-0.1,1.5-0.3,2.2c-0.2,0.7-0.6,1.3-1.1,1.7c-0.5,0.5-1.2,0.9-2.1,1.1c-0.9,0.3-2,0.4-3.3,0.4
		c-1.4,0-2.5-0.1-3.4-0.4c-0.9-0.3-1.6-0.7-2.1-1.1c-0.5-0.5-0.9-1.1-1.1-1.7c-0.2-0.7-0.3-1.4-0.3-2.2v-1.4c0-0.8,0.1-1.6,0.3-2.2
		c0.2-0.7,0.6-1.3,1.1-1.7c0.5-0.5,1.2-0.9,2.1-1.1c0.9-0.3,2-0.4,3.3-0.4c1.4,0,2.6,0.1,3.4,0.4c0.9,0.3,1.6,0.7,2.1,1.2
		c0.5,0.5,0.8,1.1,1,1.7c0.2,0.7,0.3,1.4,0.3,2.2V63.3z M77.4,63.3c0,0.7,0.1,1.3,0.2,1.7c0.1,0.4,0.3,0.8,0.6,1
		c0.3,0.2,0.6,0.4,1,0.5c0.4,0.1,0.9,0.1,1.4,0.1c0.5,0,1,0,1.4-0.1c0.4-0.1,0.7-0.3,1-0.5c0.3-0.3,0.5-0.6,0.6-1
		c0.1-0.4,0.2-1,0.2-1.7v-1.5c0-0.7-0.1-1.3-0.2-1.7s-0.3-0.8-0.6-1c-0.3-0.2-0.6-0.4-1-0.5c-0.4-0.1-0.9-0.1-1.4-0.1
		c-0.5,0-1,0-1.4,0.1c-0.4,0.1-0.7,0.3-1,0.5c-0.3,0.3-0.5,0.6-0.6,1c-0.1,0.4-0.2,1-0.2,1.7V63.3z"/>
	<path d="M94,64.2v4.3h-3.5V56.6h6.7c0.9,0,1.7,0.1,2.3,0.3c0.6,0.2,1.2,0.4,1.6,0.8c0.4,0.3,0.7,0.7,0.9,1.1
		c0.2,0.4,0.3,0.9,0.3,1.4v0.4c0,2.4-1.8,3.7-5.5,3.7H94z M94,62.2h2.4c1.6,0,2.4-0.5,2.4-1.6v-0.3c0-1.1-0.8-1.7-2.3-1.7H94V62.2z"
		/>
	<path d="M115.8,56.6l-0.4,2h-7.2v2.9h6.8l-0.3,2h-6.4v3.1h7.5l-0.4,2h-10.7V56.6H115.8z"/>
	<path d="M130.4,60.5c0,1.7-1,2.8-3,3.3l3.6,4.7h-3.8l-3.1-4.4h-2.2v4.4h-3.4V56.6h6.9c0.9,0,1.7,0.1,2.3,0.3
		c0.6,0.2,1.2,0.4,1.6,0.8c0.4,0.3,0.7,0.7,0.9,1.1c0.2,0.4,0.3,0.9,0.3,1.4V60.5z M121.9,62.2h2.7c0.8,0,1.4-0.1,1.8-0.4
		c0.4-0.3,0.6-0.7,0.6-1.2v-0.3c0-1.1-0.8-1.6-2.3-1.6h-2.8V62.2z"/>
</g>
<g>
	<rect x="22.1" y="2" width="11.6" height="50.2"/>
	<rect x="2" y="2" width="11.6" height="50.2"/>
	<g>
		<path fill="#7229B2" d="M53.5,2L34.2,52.2H22.1L41.4,2H53.5z"/>
	</g>
	<g>
		<path fill="#7229B2" d="M33.3,2L14.1,52.2H2L21.3,2H33.3z"/>
	</g>
</g>
</svg>
